<svg xmlns="http://www.w3.org/2000/svg" xmlns:xlink="http://www.w3.org/1999/xlink" viewBox="0 0 4995.485 3072.485" role="img" aria-labelledby="logoTitle">
  <title id="logoTitle">创智星球 Logo</title>
  <defs>
    <linearGradient id="brandLogoGradient" x1="0%" x2="100%" y1="0%" y2="0%">
      <stop offset="0%" stop-color="rgb(33,85,255)" stop-opacity="1" />
      <stop offset="100%" stop-color="rgb(144,37,254)" stop-opacity="1" />
    </linearGradient>
  </defs>
  <path
    fill-rule="evenodd"
    stroke="rgb(0, 85, 255)"
    stroke-width="6.99"
    stroke-linecap="butt"
    stroke-linejoin="miter"
    fill="url(#brandLogoGradient)"
    d="M4935.499,1247.297 C4830.208,1432.767 4678.107,1571.427 4518.385,1706.963 C4240.032,1939.690 3917.042,2127.780 3572.586,2297.151 C3501.486,2330.911 3454.260,2352.867 3365.223,2392.575 C2645.393,2716.606 1923.415,2877.839 1198.437,2911.793 C1020.083,2919.345 841.730,2913.727 658.880,2892.645 C525.489,2876.062 392.099,2851.961 250.893,2797.798 C169.580,2765.801 118.073,2728.672 61.841,2671.932 C33.861,2648.203 -10.272,2563.158 14.500,2483.033 C48.286,2357.014 99.769,2327.806 156.501,2255.046 C216.567,2201.205 274.559,2145.291 351.190,2098.137 C358.915,2134.358 384.403,2148.504 375.126,2185.907 C335.398,2218.120 307.579,2262.242 276.151,2307.799 C254.199,2342.637 214.316,2435.548 241.625,2502.618 C262.449,2564.260 291.596,2589.124 339.012,2622.606 C388.628,2673.461 558.591,2724.823 685.858,2747.225 C1186.447,2817.050 1687.035,2751.862 2192.121,2638.821 C2377.968,2593.532 2563.815,2540.244 2754.159,2472.915 C2835.092,2445.948 2916.026,2412.870 3002.505,2378.476 C3071.470,2351.020 3159.696,2313.860 3224.708,2283.211 C3436.203,2187.746 3611.853,2092.916 3800.394,1982.656 C4072.737,1820.355 4324.471,1637.447 4528.728,1404.293 C4580.287,1339.137 4615.512,1292.954 4657.721,1188.156 C4686.613,1111.937 4649.086,1011.992 4608.082,991.544 C4537.025,939.597 4377.952,904.834 4264.918,910.791 C4142.019,916.909 4019.120,912.783 3892.869,923.553 C3970.969,905.395 4054.683,886.677 4139.022,871.675 C4221.454,857.252 4303.886,844.206 4386.318,837.055 C4467.252,839.912 4548.186,832.502 4634.050,842.797 C4709.602,848.190 4792.581,859.194 4866.334,895.779 C4915.916,930.197 4958.079,946.410 4979.000,1031.715 C4998.029,1100.245 4964.618,1184.421 4935.499,1247.297 ZM4052.253,355.814 C4024.633,381.529 4003.054,470.144 3986.147,531.753 C3976.405,526.507 3986.897,541.495 3969.825,539.929 C3950.106,488.604 3922.858,393.065 3898.589,360.965 C3878.236,330.841 3786.254,307.796 3725.361,284.456 C3715.619,288.203 3726.111,278.461 3719.726,270.525 C3793.498,248.440 3862.124,220.047 3896.880,192.321 C3921.310,166.443 3947.586,74.796 3978.250,12.603 C3997.742,69.092 4023.592,162.062 4051.245,195.731 C4079.455,215.600 4151.792,245.677 4219.955,266.471 C4216.208,276.213 4225.950,265.721 4228.025,283.408 C4170.382,305.488 4085.176,330.070 4052.253,355.814 ZM2891.916,1493.284 C2955.683,1494.199 2994.213,1521.071 3013.560,1552.414 C3037.492,1649.834 3061.441,1747.254 3083.786,1846.503 C3080.454,1937.746 3055.884,1963.548 2975.753,1985.280 C2911.827,1982.264 2881.746,1958.063 2860.526,1921.112 C2838.616,1838.679 2824.400,1756.247 2801.243,1672.322 C2777.199,1571.513 2821.324,1511.976 2885.700,1498.667 C2893.544,1493.963 2893.544,1493.963 2891.916,1493.284 ZM2964.055,1676.736 C2974.478,1678.311 2978.974,1678.311 2983.471,1678.311 C2982.721,1673.815 2997.709,1669.318 2992.463,1664.822 C2998.285,1633.349 2983.423,1597.554 2973.179,1585.695 C2965.376,1578.003 2958.976,1573.912 2947.568,1574.828 C2917.084,1591.306 2942.747,1673.851 2964.055,1676.736 ZM2085.956,1687.354 C2212.519,1688.933 2226.141,1748.085 2257.013,1874.225 C2275.732,1959.184 2331.699,2097.573 2258.344,2148.660 C2230.922,2179.204 2130.355,2187.329 2101.883,2151.976 C2047.079,2114.419 2043.668,1979.791 2013.606,1894.134 C2002.105,1847.672 1987.695,1801.210 2010.838,1753.666 C2025.679,1720.048 2052.062,1704.229 2085.956,1687.354 ZM2168.626,1861.049 C2178.632,1862.660 2183.128,1862.660 2187.624,1862.660 C2194.529,1833.177 2199.578,1762.236 2156.904,1763.028 C2126.398,1779.279 2145.180,1858.767 2168.626,1861.049 ZM3788.544,1831.420 C3705.785,1903.034 3603.636,1955.258 3500.546,2011.038 C3496.050,2009.539 3491.553,2014.785 3486.882,2002.045 C3534.025,1826.689 3540.311,1651.333 3477.229,1467.606 C3426.605,1326.406 3369.322,1264.369 3275.896,1186.396 C3221.063,1132.749 3039.211,1070.022 2917.776,1117.369 C2851.398,1134.092 2807.299,1154.041 2774.122,1173.766 C2697.313,1213.369 2562.362,1264.426 2457.403,1297.479 C2262.563,1359.168 2067.723,1382.877 1872.344,1399.462 C1696.545,1436.385 1632.446,1488.658 1561.474,1573.732 C1536.248,1600.963 1517.306,1634.478 1499.853,1670.321 C1453.538,1762.259 1445.996,1859.126 1452.256,1957.082 C1456.253,2027.524 1475.566,2097.966 1504.463,2176.159 C1546.542,2273.452 1576.942,2324.130 1629.452,2393.854 C1682.435,2450.281 1736.789,2505.337 1809.934,2546.098 C1804.689,2555.840 1819.676,2545.349 1814.431,2559.587 C1812.932,2562.585 1818.178,2572.327 1809.934,2571.445 C1655.561,2596.416 1501.188,2623.205 1343.027,2630.820 C1264.893,2550.085 1190.510,2465.598 1129.488,2363.254 C1101.719,2322.079 1078.698,2276.157 1055.645,2230.590 C934.692,1970.203 894.423,1706.046 924.818,1440.007 C938.104,1342.587 960.425,1245.167 996.779,1145.938 C1033.815,1045.753 1064.849,982.774 1094.576,931.479 C1204.790,738.941 1349.517,580.917 1527.922,454.316 C1626.682,389.496 1702.503,340.526 1841.409,284.849 C1992.784,230.600 2144.160,194.950 2295.536,186.175 C2413.938,182.450 2532.341,187.372 2655.240,213.083 C2758.655,234.523 2862.070,266.828 2971.374,314.538 C3220.673,433.936 3419.876,603.431 3571.101,825.399 C3605.000,881.426 3638.808,937.544 3667.193,996.271 C3792.502,1270.132 3836.512,1550.722 3788.544,1831.420 ZM490.257,2077.965 C465.296,2031.513 472.260,1975.462 493.552,1932.046 C515.893,1898.284 533.267,1885.602 592.339,1863.426 C595.931,1862.660 595.931,1862.660 592.829,1860.403 C701.261,1865.531 740.205,1895.956 767.412,1981.708 C785.275,2059.257 744.146,2104.578 715.292,2128.125 C645.696,2196.197 494.711,2140.055 490.257,2077.965 ZM3200.664,2546.343 C3270.641,2518.209 3366.851,2478.489 3424.129,2451.697 C3476.958,2426.589 3531.439,2403.134 3581.479,2375.239 C3585.976,2375.239 3590.472,2375.239 3598.814,2383.101 C3521.427,2506.220 3427.395,2610.387 3320.136,2707.408 C3242.037,2777.687 3154.161,2838.189 3055.781,2892.177 C3018.728,2911.983 2987.743,2928.645 2938.508,2949.683 C2742.169,3033.816 2545.830,3066.842 2344.995,3060.793 C2247.575,3059.717 2150.155,3048.010 2048.239,3023.808 C2000.278,3016.269 1952.317,3000.232 1898.456,2983.887 C1857.972,2966.592 1786.061,2947.310 1769.468,2918.530 C2085.708,2874.220 2401.948,2810.083 2722.685,2713.184 C2880.056,2664.838 3037.426,2611.277 3200.664,2546.343 Z"
  />
</svg>
