<svg width="720" height="420" viewBox="0 0 720 420" fill="none" xmlns="http://www.w3.org/2000/svg">
  <defs>
    <linearGradient id="bg" x1="58" y1="42" x2="654" y2="378" gradientUnits="userSpaceOnUse">
      <stop stop-color="#0F766E"/>
      <stop offset="1" stop-color="#115E59"/>
    </linearGradient>
    <linearGradient id="card" x1="436" y1="56" x2="628" y2="322" gradientUnits="userSpaceOnUse">
      <stop stop-color="#F8FFFE" stop-opacity="0.98"/>
      <stop offset="1" stop-color="#D9FFFA" stop-opacity="0.88"/>
    </linearGradient>
  </defs>
  <rect width="720" height="420" rx="36" fill="url(#bg)"/>
  <circle cx="604" cy="76" r="86" fill="#34D399" fill-opacity="0.18"/>
  <circle cx="126" cy="346" r="118" fill="#99F6E4" fill-opacity="0.14"/>
  <path d="M102 304C146 238 208 196 286 178C364 160 430 112 478 44" stroke="white" stroke-opacity="0.22" stroke-width="18" stroke-linecap="round"/>
  <rect x="66" y="64" width="300" height="292" rx="30" fill="white" fill-opacity="0.12" stroke="white" stroke-opacity="0.18"/>
  <text x="94" y="132" fill="white" font-size="48" font-weight="800" font-family="Arial,'PingFang SC','Microsoft YaHei',sans-serif">家教教程</text>
  <text x="94" y="182" fill="#D1FAE5" font-size="26" font-weight="600" font-family="Arial,'PingFang SC','Microsoft YaHei',sans-serif">从完善资料到接单上课</text>
  <text x="94" y="236" fill="white" font-size="22" font-weight="600" font-family="Arial,'PingFang SC','Microsoft YaHei',sans-serif">1. 完善资料和科目标签</text>
  <text x="94" y="274" fill="white" font-size="22" font-weight="600" font-family="Arial,'PingFang SC','Microsoft YaHei',sans-serif">2. 浏览需求并主动沟通</text>
  <text x="94" y="312" fill="white" font-size="22" font-weight="600" font-family="Arial,'PingFang SC','Microsoft YaHei',sans-serif">3. 确认合作后开始授课</text>
  <rect x="434" y="60" width="204" height="268" rx="28" fill="url(#card)"/>
  <rect x="462" y="92" width="148" height="28" rx="14" fill="#CCFBF1"/>
  <rect x="462" y="136" width="148" height="78" rx="18" fill="#0F766E" fill-opacity="0.1"/>
  <rect x="462" y="228" width="148" height="18" rx="9" fill="#99F6E4"/>
  <rect x="462" y="258" width="108" height="18" rx="9" fill="#99F6E4" fill-opacity="0.72"/>
  <circle cx="512" cy="174" r="26" fill="#0F766E"/>
  <path d="M498 175L508 185L528 163" stroke="white" stroke-width="10" stroke-linecap="round" stroke-linejoin="round"/>
  <rect x="446" y="334" width="180" height="36" rx="18" fill="white" fill-opacity="0.18" stroke="white" stroke-opacity="0.24"/>
  <text x="478" y="358" fill="white" font-size="20" font-weight="700" font-family="Arial,'PingFang SC','Microsoft YaHei',sans-serif">查看接单流程</text>
</svg>
